<svg width="190" height="34" viewBox="0 0 190 34" xmlns="http://www.w3.org/2000/svg"><title>E1C2A1BA-5B22-4EF3-8750-5C4FDFA481B0</title><g fill="none" fill-rule="evenodd"><path d="M90.703 13.01c0-.766-.266-1.457-1.103-1.457-.836 0-1.103.69-1.103 1.458v10.056c0 .77.267 1.462 1.103 1.462.837 0 1.103-.692 1.103-1.462V13.011zm5.28 9.768c0 3.87-3.004 5.549-6.383 5.549-3.376 0-6.384-1.68-6.384-5.549v-9.475c0-3.87 3.008-5.546 6.384-5.546 3.379 0 6.382 1.676 6.382 5.546v9.475zM105.769 12.766c0-.768-.285-1.46-1.185-1.46-.892 0-1.184.692-1.184 1.46V23.29c0 .769.292 1.46 1.184 1.46.9 0 1.185-.691 1.185-1.46v-3.47h5.154v3.067c0 3.944-2.73 5.441-6.55 5.441-4.026 0-6.482-1.792-6.482-5.807v-8.968c0-3.432 2.388-5.84 6.482-5.84 3.477 0 6.55 1.387 6.55 5.877v1.56h-5.154v-2.384zM99.58 33.192h9.636v-3.748H99.58z" fill="#221F20"/><path d="M54.876 21.87c-2.057 1.8-4.794 2.333-7.026 1.33-1.34-.632-2.318-1.8-2.613-3.009 1.873 1.86 5.246 2.804 8.342-.449 0 0 2.906-2.676 1.257-7.724-.816-2.501-3.88-4.579-6.435-4.835-3.806-.613-7.401.68-9.878 4.16-2.932 4.507-3.3 9.527-5.428 14.552-.357.825-1.104 1.188-1.865 1.147h-.004c-.758.04-1.508-.322-1.867-1.147-2.126-5.025-2.49-10.045-5.424-14.553-2.482-3.478-6.074-4.772-9.881-4.16-2.545.257-5.615 2.335-6.433 4.836-1.646 5.048 1.255 7.724 1.255 7.724 3.094 3.253 6.473 2.31 8.346.449-.297 1.208-1.275 2.377-2.611 3.01-2.233 1.002-4.973.468-7.032-1.332-3.038-3.013-3.494-6.868-2.293-10.425 1.46-4.321 5.839-6.484 9.325-6.757 4.123-.364 9.816 2.16 12.093 6.462.52.998 1.636 3.56 1.636 3.56h5.782s1.106-2.562 1.64-3.56c2.274-4.303 7.964-6.826 12.088-6.462 3.485.273 7.864 2.436 9.324 6.757 1.202 3.557.743 7.412-2.298 10.425m6.845-11.59C58.334.567 48.631.026 47.636.004c-4.334-.09-9.135 1.42-12.788 4.978-1.468 1.316-2.515 2.834-3.618 4.488l-.002.002-.002-.002c-1.102-1.654-2.153-3.172-3.617-4.488C23.956 1.424 19.156-.085 14.822.004 13.823.026 4.126.567.736 10.279c-1.21 3.471-.934 7.986.872 11.29 1.785 3.815 6.056 6.928 10.561 6.613 3.267-.086 6.839-2.163 8.159-5.492 1.1-2.984.762-6.184-1.786-8.748.06.659.092 1.554-.555 2.396-1.028 1.42-2.653 1.77-4.337 1.166-1.48-.674-2.037-1.74-1.883-3.156.102-1.21 1.072-2.132 2.077-2.586 1.974-.853 3.79-.42 5.568 1.268 2.909 3.245 3.249 8.16 4.632 11.887.975 3.073 2.523 5.74 5.924 6.505.41.092.83.139 1.258.132h.004c.427.007.85-.04 1.255-.132 3.4-.764 4.95-3.432 5.933-6.505 1.38-3.726 1.716-8.642 4.627-11.887 1.78-1.688 3.6-2.121 5.566-1.268 1.01.454 1.974 1.375 2.08 2.586.158 1.416-.405 2.482-1.888 3.156-1.672.604-3.306.254-4.33-1.166-.65-.842-.619-1.737-.557-2.396-2.55 2.564-2.886 5.764-1.783 8.748 1.317 3.329 4.889 5.406 8.157 5.492 4.499.315 8.775-2.798 10.558-6.613 1.802-3.304 2.078-7.819.873-11.29" fill="#F04E23"/><path d="M120.2 12.197v15.251h-5.13V12.197h-1.693v-3.96h1.694V4.59c0-1.465.981-3.021 3.436-3.021h3.388v3.02c-1.298 0-1.517.805-1.517 1.603v2.045h1.647v3.96H120.2zM124.343 27.453h5.125V7.839h-5.125v19.614zm0-21.796h5.125V1.524h-5.125v4.133zM139.77 27.448l.044-13.295c0-.89-.09-1.869-1.158-1.869-1.072 0-1.117.98-1.117 1.87v13.294h-5.438V7.838h5.438V9.35c1.068-1.068 2.097-2.005 3.655-2.005 1.65 0 4.02.85 4.02 4.361v15.741h-5.444zM154.655 17.576c-1.247.801-2.137 1.203-2.137 2.847v2.403c0 1.154.312 1.597 1.067 1.597.76 0 1.07-.443 1.07-1.597v-5.25zm.27 9.872l-.222-.976c-.89.976-1.873 1.466-3.882 1.466-2.137.044-3.656-1.912-3.61-4.267l.046-3.338c.091-5.426 7.49-3.78 7.49-7.825 0-.845-.044-1.557-1.026-1.557-.937 0-1.203.712-1.203 1.557v1.645h-5.26v-1.645c0-3.515 3.033-5.157 6.463-5.157 4.369 0 6.377 2.445 6.377 5.11v14.987h-5.173zM169.502 27.448l.048-13.295c0-.89-.091-1.869-1.162-1.869-1.067 0-1.114.98-1.114 1.87v13.294h-5.44V7.838h5.44V9.35c1.07-1.068 2.098-2.005 3.657-2.005 1.648 0 4.014.85 4.014 4.361v15.741h-5.443zM182.3 27.938c-3.35 0-5.934-1.911-5.934-5.647v-1.69h4.905l.045 1.78c.046 1.065.533 1.955 1.383 2 .803 0 1.291-.666 1.291-1.555 0-3.56-7.624-4.846-7.624-9.74 0-3.78 2.676-5.648 6.062-5.648 3.97 0 6.515 2.627 6.515 5.426v1.468h-4.865l.044-1.602c.045-.888-.533-1.556-1.379-1.512-.802 0-1.16.535-1.16 1.38 0 2.224 7.624 4.27 7.624 9.737 0 4.094-2.452 5.603-6.906 5.603M77.238 12.422l5.297-10.956h-5.75l-3.751 8.102V1.466H67.22v26.03h5.813V19.81l.836-1.436 3.333 9.12h5.815z" fill="#221F20"/></g></svg>